<?xml version="1.0" encoding="utf-8"?>
<!-- Generator: Adobe Illustrator 23.0.5, SVG Export Plug-In . SVG Version: 6.00 Build 0)  -->
<svg version="1.1" id="Capa_1" xmlns="http://www.w3.org/2000/svg" xmlns:xlink="http://www.w3.org/1999/xlink" x="0px" y="0px"
	 viewBox="0 0 140.57 128" style="enable-background:new 0 0 140.57 128;" xml:space="preserve">
<style type="text/css">
	.st0{fill:#2B2B2B;}
	.st1{fill:#59C55B;}
	.st2{fill:#6D6D6D;}
	.st3{fill:#5BC65D;}
	.st4{fill:#A1A1A1;}
	.st5{fill:#FAF8FA;}
	.st6{fill:#5BCA5D;}
	.st7{fill:#F8F8F8;}
	.st8{fill:#F9F9F9;}
	.st9{fill:#53C355;}
	.st10{fill:#FCFDFC;}
	.st11{fill:#242424;}
	.st12{fill:#686868;}
</style>
<path class="st0" d="M74.01,79.78c-4.44,3.98-8.85,8-13.36,11.91c-0.93,0.81-1.46,2.36-3.14,2.11c-1.32-2.7-0.44-5.57-0.63-8.36
	c-0.17-2.58,0.15-5.18-0.32-7.75c-0.07-7.96-0.03-15.92-0.02-23.88c0-1.86-0.17-3.79,1.61-5.1c2.23-7.16,6.97-11.57,14.35-13.07
	c0.43-0.21,0.86-0.2,1.28,0.03c2.27,0.75,1.7,2.7,1.81,4.35c0.28,4.27-0.8,8.66,1.25,12.76c1.47,7.61,0.65,15.27,0.53,22.92
	c-0.02,1.59-1.21,2.3-2.49,2.86c-0.13,0.18-0.2,0.39-0.2,0.62C74.6,79.53,74.37,79.73,74.01,79.78z"/>
<path class="st1" d="M58.16,48.71c-1.35,8.12-0.4,16.31-0.68,24.46c-0.05,1.48-0.08,2.97-0.11,4.46c-0.26-0.04-0.65-0.1-0.66-0.21
	c-0.43-7.8-0.1-15.6-0.25-23.4c0.07,7.95-0.06,15.9,0.09,23.85c0,0.48-0.17,0.89-0.51,1.23c-5.56,4.93-11.12,9.86-16.71,14.82
	c-1.03-0.97-0.62-2.02-0.62-2.94c-0.01-12.73-0.15-25.46,0.11-38.18c0.19-9.01,7.07-16.17,15.76-17.11c0.9,0.56,1.98,0.81,1.93,2.35
	c-0.12,3.32-0.04,6.65-0.02,9.98c0-3.44-0.02-6.87,0.02-10.31c0.01-1.08-0.75-1.49-1.36-2.07c2.06-1.15,2.19,0.1,2.32,1.73
	C57.77,41.14,56.58,45.01,58.16,48.71z"/>
<path class="st2" d="M73.45,35.96c-0.32-0.11-0.63-0.21-0.95-0.32c2.91-1.49,4.03-0.61,3.86,2.64c-0.18,3.33-0.04,6.67,0.17,10.12
	c2.87-6.71,7.36-11.42,14.73-12.79c0.47-0.17,0.92-0.14,1.36,0.09c2.11,0.79,2.03,2.65,2.03,4.38c0,12.33,0.16,24.66-0.07,36.99
	c-0.04,0.23-0.08,0.46-0.12,0.69c-5.82,5.39-11.64,10.79-18.3,16.95c0-5.05,0.06-9.17-0.04-13.28c-0.03-1.02,0.87-2.66-1.23-2.89
	c0.5-0.95,1.44-1.58,1.42-2.91c-0.1-7.22-0.08-14.45-0.14-21.68c0-0.33-0.32-0.65-0.49-0.98c-1.01-4.65-0.19-9.36-0.42-14.03
	C75.19,37.59,75.45,36.13,73.45,35.96z"/>
<path class="st3" d="M94.68,86.94c-0.48-0.44-0.33-0.36-0.33-0.29c0.12,9.9,1.87,8.52-8.27,8.19
	C88.83,92.31,91.68,89.69,94.68,86.94z"/>
<path class="st4" d="M92.19,35.91c-0.31-0.1-0.62-0.19-0.93-0.29c1.34-0.69,2.68-1.22,3.94,0.17c0.62,10.04,0.19,20.09,0.24,30.13
	c0.02,3.94,0.51,7.91-0.36,11.83l-0.31,0.03c0,0-0.31-0.01-0.31-0.01c-0.15,0.02-0.28-0.02-0.39-0.12
	c-0.19-12.65-0.02-25.3-0.1-37.96C93.96,38.21,94.64,36.29,92.19,35.91z"/>
<path class="st5" d="M38.1,51.79c0,1.23,0,2.46,0,3.69c0,12.58,0,25.16,0,37.73c-0.16,0-0.31,0-0.47,0c0-13.86,0-27.71,0-41.57
	C37.78,51.69,37.94,51.74,38.1,51.79z"/>
<path class="st6" d="M56.09,78.46c0-8.42,0-16.84,0-25.26c0.25,0,0.5-0.01,0.76-0.01c0,6.57-0.04,13.15,0.03,19.72
	c0.01,1.57-0.48,3.23,0.49,4.72c0.53,5.39,0.27,10.78,0.15,16.17c-0.07,0.2-0.21,0.32-0.43,0.34c-1.35-2.82-0.26-5.81-0.58-8.7
	C56.24,83.12,56.94,80.74,56.09,78.46z"/>
<path class="st7" d="M95.08,77.75c0.04-13.99,0.08-27.97,0.12-41.96c0.85,0.78,0.66,1.82,0.66,2.79c0.01,12.02,0.01,24.05,0,36.07
	C95.85,75.73,96.13,76.92,95.08,77.75z"/>
<path class="st8" d="M74.01,79.78c0.23-0.2,0.46-0.4,0.68-0.61c2.08,4.62,0.14,9.42,0.78,14.11C74.1,88.86,75.92,84.14,74.01,79.78z
	"/>
<path class="st9" d="M55.14,35.63c1.14,0.21,1.7,0.86,1.69,2.06c-0.02,3.82-0.01,7.65-0.73,11.47c0-3.18-0.08-6.36,0.04-9.53
	c0.06-1.62-0.35-2.9-1.56-3.95C54.76,35.54,54.94,35.52,55.14,35.63z"/>
<path class="st10" d="M56.09,78.46c1.59,0.67,0.98,2.09,1,3.2c0.06,4.16,0.01,8.33-0.01,12.49c-1.82-1.42-0.84-3.4-0.93-5.12
	c-0.18-3.3-0.09-6.62-0.11-9.93C56.05,78.88,56.07,78.67,56.09,78.46z"/>
<path class="st11" d="M73.45,35.96c2.1-0.54,2.14,0.77,2.14,2.28c0,4.92,0.05,9.84,0.09,14.75c-1.82-4.15-0.41-8.5-0.8-12.74
	C74.74,38.68,75.16,36.99,73.45,35.96z"/>
<path class="st12" d="M92.19,35.91c1.71-0.38,2.2,0.44,2.18,2.02c-0.2,13.24,0.35,26.48-0.29,39.72c-0.92-1.78-0.43-3.69-0.44-5.52
	c-0.05-10.62-0.03-21.24-0.02-31.87C93.62,38.64,93.84,36.97,92.19,35.91z"/>
</svg>
